REM DIRINDEX 1\2,1\4,1\3\5,1\3\6,1\3\7
REM DIRNAME folder01,folder02,folder03,folder04,folder05,folder06,folder07
TITLE ""
FILE "CD1Track53.mp3" MP3
  TRACK 01 AUDIO
    TITLE "0:"
    INDEX 01 00:00:00
  TRACK 02 AUDIO
    TITLE "5:cjc083_1085"
    INDEX 01 00:00:33
  TRACK 03 AUDIO
    TITLE "0:"
    INDEX 01 00:02:22
  TRACK 04 AUDIO
    TITLE "6:cjc083_1086"
    INDEX 01 00:02:65
  TRACK 05 AUDIO
    TITLE "0:"
    INDEX 01 00:04:29
  TRACK 06 AUDIO
    TITLE "5:cjc083_1087"
    INDEX 01 00:04:72
  TRACK 07 AUDIO
    TITLE "0:"
    INDEX 01 00:06:16
  TRACK 08 AUDIO
    TITLE "6:cjc083_1088"
    INDEX 01 00:06:61
  TRACK 09 AUDIO
    TITLE "0:"
    INDEX 01 00:08:01
  TRACK 10 AUDIO
    TITLE "5:cjc083_1089"
    INDEX 01 00:08:42
  TRACK 11 AUDIO
    TITLE "0:"
    INDEX 01 00:10:29
  TRACK 12 AUDIO
    TITLE "6:cjc083_1090"
    INDEX 01 00:10:68
  TRACK 13 AUDIO
    TITLE "0:"
    INDEX 01 00:12:61
  TRACK 14 AUDIO
    TITLE "5:cjc083_1091"
    INDEX 01 00:13:28
  TRACK 15 AUDIO
    TITLE "0:"
    INDEX 01 00:15:19
  TRACK 16 AUDIO
    TITLE "6:cjc083_1092"
    INDEX 01 00:15:62
  TRACK 17 AUDIO
    TITLE "0:"
    INDEX 01 00:17:47
  TRACK 18 AUDIO
    TITLE "5:cjc083_1093"
    INDEX 01 00:18:07
  TRACK 19 AUDIO
    TITLE "0:"
    INDEX 01 00:19:20
  TRACK 20 AUDIO
    TITLE "6:cjc083_1094"
    INDEX 01 00:19:62
  TRACK 21 AUDIO
    TITLE "0:"
    INDEX 01 00:20:73
  TRACK 22 AUDIO
    TITLE "5:cjc083_1095"
    INDEX 01 00:21:35
  TRACK 23 AUDIO
    TITLE "0:"
    INDEX 01 00:23:16
  TRACK 24 AUDIO
    TITLE "6:cjc083_1096"
    INDEX 01 00:23:57
  TRACK 25 AUDIO
    TITLE "0:"
    INDEX 01 00:26:07
  TRACK 26 AUDIO
    TITLE "5:cjc083_1097"
    INDEX 01 00:26:46
  TRACK 27 AUDIO
    TITLE "0:"
    INDEX 01 00:27:49
  TRACK 28 AUDIO
    TITLE "6:cjc083_1098"
    INDEX 01 00:28:19
  TRACK 29 AUDIO
    TITLE "0:"
    INDEX 01 00:29:29
  TRACK 30 AUDIO
    TITLE "5:cjc083_1099"
    INDEX 01 00:29:64
  TRACK 31 AUDIO
    TITLE "0:"
    INDEX 01 00:31:04
  TRACK 32 AUDIO
    TITLE "6:cjc083_1100"
    INDEX 01 00:31:45
  TRACK 33 AUDIO
    TITLE "0:"
    INDEX 01 00:32:41
  TRACK 34 AUDIO
    TITLE "5:cjc083_1101"
    INDEX 01 00:33:01
  TRACK 35 AUDIO
    TITLE "0:"
    INDEX 01 00:34:53
  TRACK 36 AUDIO
    TITLE "6:cjc083_1102"
    INDEX 01 00:35:23
  TRACK 37 AUDIO
    TITLE "0:"
    INDEX 01 00:37:34
  TRACK 38 AUDIO
    TITLE "5:cjc083_1103"
    INDEX 01 00:37:71
  TRACK 39 AUDIO
    TITLE "0:"
    INDEX 01 00:39:23
  TRACK 40 AUDIO
    TITLE "6:cjc083_1104"
    INDEX 01 00:39:68
  TRACK 41 AUDIO
    TITLE "0:"
    INDEX 01 00:41:32
  TRACK 42 AUDIO
    TITLE "5:cjc083_1105"
    INDEX 01 00:41:71
  TRACK 43 AUDIO
    TITLE "0:"
    INDEX 01 00:43:40
  TRACK 44 AUDIO
    TITLE "6:cjc083_1106"
    INDEX 01 00:44:05
  TRACK 45 AUDIO
    TITLE "0:"
    INDEX 01 00:46:06
  TRACK 46 AUDIO
    TITLE "5:cjc083_1107"
    INDEX 01 00:46:47
  TRACK 47 AUDIO
    TITLE "0:"
    INDEX 01 00:47:70
  TRACK 48 AUDIO
    TITLE "6:cjc083_1108"
    INDEX 01 00:48:34
  TRACK 49 AUDIO
    TITLE "0:"
    INDEX 01 00:49:55
  TRACK 50 AUDIO
    TITLE "5:cjc083_1109"
    INDEX 01 00:50:17
  TRACK 51 AUDIO
    TITLE "0:"
    INDEX 01 00:51:34
  TRACK 52 AUDIO
    TITLE "6:cjc083_1110"
    INDEX 01 00:51:71
  TRACK 53 AUDIO
    TITLE "0:"
    INDEX 01 00:53:08
  TRACK 54 AUDIO
    TITLE "5:cjc083_1111"
    INDEX 01 00:53:43
  TRACK 55 AUDIO
    TITLE "0:"
    INDEX 01 00:54:56
  TRACK 56 AUDIO
    TITLE "6:cjc083_1112"
    INDEX 01 00:55:20
  TRACK 57 AUDIO
    TITLE "0:"
    INDEX 01 00:58:05
  TRACK 58 AUDIO
    TITLE "5:cjc083_1113"
    INDEX 01 00:58:42
  TRACK 59 AUDIO
    TITLE "0:"
    INDEX 01 01:00:12
  TRACK 60 AUDIO
    TITLE "6:cjc083_1114"
    INDEX 01 01:00:49
  TRACK 61 AUDIO
    TITLE "0:"
    INDEX 01 01:01:74
  TRACK 62 AUDIO
    TITLE "7:cjc083_1115"
    INDEX 01 01:03:33
  TRACK 63 AUDIO
    TITLE "0:"
    INDEX 01 01:13:16
